<svg xmlns="http://www.w3.org/2000/svg" viewBox="0 0 264.3 371"><defs><style>.cls-1{fill:#495b7a;}.cls-2{fill:#3b4a63;}.cls-3{fill:#fff;}.cls-4{fill:#ff8875;}.cls-5{fill:#f2806f;}.cls-6{fill:#aab2bd;}</style></defs><title>Asset 7Consent</title><g id="Layer_2" data-name="Layer 2"><g id="Layer_1-2" data-name="Layer 1"><path class="cls-1" d="M259.5,371H4.7A4.69,4.69,0,0,1,0,366.3V43.4a4.69,4.69,0,0,1,4.7-4.7H259.6a4.69,4.69,0,0,1,4.7,4.7v323A4.83,4.83,0,0,1,259.5,371Z"/><polygon class="cls-2" points="20 52 20 314.8 195.2 314.8 195.2 277.9 232.2 277.9 232.2 52 20 52"/><polygon class="cls-3" points="26 57.7 26 320.5 201.2 320.5 201.2 283.6 238.2 283.6 238.2 57.7 26 57.7"/><path class="cls-4" d="M152.9,28.1V20.8a20.8,20.8,0,0,0-41.6,0v7.3H74.6V70.7H189.7V28.1Z"/><path class="cls-5" d="M152.9,28.1V20.8a20.8,20.8,0,0,0-41.6,0v7.3"/><polygon class="cls-6" points="201.2 320.5 238.2 283.6 201.2 283.6 201.2 320.5"/><path class="cls-1" d="M68.08,189.93H196.22c7.72,0,7.73-12,0-12H68.08c-7.72,0-7.73,12,0,12Z"/><path class="cls-1" d="M69.88,229.8H198c7.72,0,7.73-12,0-12H69.88c-7.72,0-7.73,12,0,12Z"/><path class="cls-1" d="M68.08,149H196.22c7.72,0,7.73-12,0-12H68.08c-7.72,0-7.73,12,0,12Z"/></g></g></svg>