<svg xmlns="http://www.w3.org/2000/svg" viewBox="0 0 445.16 379.49"><defs><style>.cls-1{fill:#5eae57;}.cls-2{fill:#67bf5f;}.cls-3{fill:#fff;}.cls-4{fill:#ff8875;}.cls-5{fill:#fccc6f;}.cls-6{fill:none;}</style></defs><title>Asset 6Eligibility</title><g id="Layer_2" data-name="Layer 2"><g id="Layer_1-2" data-name="Layer 1"><circle class="cls-1" cx="218.8" cy="212.07" r="128.93"/><path class="cls-2" d="M218.8,341a128.93,128.93,0,1,1,0-257.86"/><path class="cls-3" d="M158.78,225.39l40.55,42.3c2.84,3,7.29,1.87,9.42-1.21l62.15-90,8.85-12.81c4.4-6.37-6-12.38-10.36-6.06l-62.15,90-8.85,12.81,9.42-1.21-40.55-42.3c-5.35-5.59-13.83,2.91-8.49,8.49Z"/><path class="cls-4" d="M21.8,38.07v44c0,7.72,12,7.73,12,0v-44c0-7.72-12-7.73-12,0Z"/><path class="cls-4" d="M49.8,54.07H5.8c-7.72,0-7.73,12,0,12h44c7.72,0,7.73-12,0-12Z"/><path class="cls-5" d="M361.8,310.85v44c0,7.72,12,7.73,12,0v-44c0-7.72-12-7.73-12,0Z"/><path class="cls-5" d="M389.8,326.85h-44c-7.72,0-7.73,12,0,12h44c7.72,0,7.73-12,0-12Z"/><path class="cls-5" d="M71.37,82.07v22c0,5.79,9,5.8,9,0v-22c0-5.79-9-5.8-9,0Z"/><path class="cls-5" d="M86.87,88.57h-22c-5.79,0-5.8,9,0,9h22c5.79,0,5.8-9,0-9Z"/><path class="cls-4" d="M110,4.35V29c0,5.79,9,5.8,9,0V4.35c0-5.79-9-5.8-9,0Z"/><path class="cls-4" d="M126.83,12.17H102.19c-5.79,0-5.8,9,0,9h24.64c5.79,0,5.8-9,0-9Z"/><path class="cls-4" d="M413,270v24.64c0,5.79,9,5.8,9,0V270c0-5.79-9-5.8-9,0Z"/><path class="cls-4" d="M429.82,277.84H405.17c-5.79,0-5.8,9,0,9h24.64c5.79,0,5.8-9,0-9Z"/><path class="cls-4" d="M41.27,154.1v24.64c0,5.79,9,5.8,9,0V154.1c0-5.79-9-5.8-9,0Z"/><path class="cls-4" d="M58.09,161.92H33.45c-5.79,0-5.8,9,0,9H58.09c5.79,0,5.8-9,0-9Z"/><path class="cls-5" d="M425.32,353.14v22c0,5.79,9,5.8,9,0v-22c0-5.79-9-5.8-9,0Z"/><path class="cls-5" d="M440.82,359.64h-22c-5.79,0-5.8,9,0,9h22c5.79,0,5.8-9,0-9Z"/><path class="cls-4" d="M384.3,209.14v24.64c0,5.79,9,5.8,9,0V209.14c0-5.79-9-5.8-9,0Z"/><path class="cls-4" d="M401.12,217H376.48c-5.79,0-5.8,9,0,9h24.64c5.79,0,5.8-9,0-9Z"/><circle class="cls-6" cx="218.8" cy="210.43" r="128.93"/></g></g></svg>