<?xml version="1.0" encoding="UTF-8" standalone="no"?>
<svg width="1052px" height="1052px" viewBox="0 0 1052 1052" version="1.1" xmlns="http://www.w3.org/2000/svg" xmlns:xlink="http://www.w3.org/1999/xlink">
    <!-- Generator: Sketch 48.2 (47327) - http://www.bohemiancoding.com/sketch -->
    <title>Artboard</title>
    <desc>Created with Sketch.</desc>
    <defs>
        <polygon id="path-1" points="0.0113659193 0.636653543 11.1302 0.636653543 11.1302 41.8460947 0.0113659193 41.8460947 0.0113659193 0.636653543"></polygon>
    </defs>
    <g id="Page-1" stroke="none" stroke-width="1" fill="none" fill-rule="evenodd">
        <g id="Artboard">
            <g id="Group-2" transform="translate(99.000000, 47.000000)">
                <g id="Asset-6Consent" fill-rule="nonzero">
                    <path d="M600.885334,858.999975 L10.8831113,858.999975 C7.99485177,859.006137 5.22311274,857.862189 3.18080019,855.821091 C1.13848764,853.779992 -0.00614015482,851.009901 2.47745447e-05,848.123358 L2.47745447e-05,100.876642 C-0.00614015482,97.990099 1.13848764,95.2200077 3.18080019,93.1789093 C5.22311274,91.1378108 7.99485177,89.9938635 10.8831113,90.0000248 L601.116889,90.0000248 C604.005148,89.9938635 606.776887,91.1378108 608.8192,93.1789093 C610.861512,95.2200077 612.00614,97.990099 611.999975,100.876642 L611.999975,848.354776 C611.71682,854.292366 606.833123,858.969794 600.885334,858.999975 Z" id="Shape" fill="#495B7A"></path>
                    <polygon id="Shape" fill="#3B4A63" points="47 120 47 729 453.213007 729 453.213007 643.489726 539 643.489726 539 120"></polygon>
                    <polygon id="Shape" fill="#FFFFFF" points="60 134 60 743 466.213007 743 466.213007 657.489726 552 657.489726 552 134"></polygon>
                    <path d="M354.634231,65.1824611 L354.634231,48.2489392 C354.634231,21.6017859 333.031873,1.63166755e-15 306.384014,0 C279.736155,-1.63166755e-15 258.133797,21.6017859 258.133797,48.2489392 L258.133797,65.1824611 L173,65.1824611 L173,164 L440,164 L440,65.1824611 L354.634231,65.1824611 Z" id="Shape" fill="#FF8875"></path>
                    <path d="M354,65 L354,48.113879 C354,21.5413174 332.509668,1.62710013e-15 306,0 C279.490332,-1.62710013e-15 258,21.5413174 258,48.113879 L258,65" id="Shape" fill="#F2806F"></path>
                    <polygon id="Shape" fill="#AAB2BD" points="466 742 552 656 466 656"></polygon>
                    <path d="M157.434544,440 L454.565456,440 C472.466585,440 472.489773,412 454.565456,412 L157.434544,412 C139.533415,412 139.510227,440 157.434544,440 Z" id="Shape" fill="#495B7A"></path>
                    <path d="M161.436467,532 L458.563533,532 C476.467225,532 476.490416,504 458.563533,504 L161.436467,504 C143.532775,504 143.509584,532 161.436467,532 Z" id="Shape" fill="#495B7A"></path>
                    <path d="M157.434544,345 L454.565456,345 C472.466585,345 472.489773,317 454.565456,317 L157.434544,317 C139.533415,317 139.510227,345 157.434544,345 Z" id="Shape" fill="#495B7A"></path>
                </g>
                <g id="Group" transform="translate(304.000000, 487.000000)">
                    <g id="vows-step">
                        <g id="vows-icon">
                            <path d="M270.305775,422.781962 C182.337266,422.781962 111.02477,351.422372 111.02477,263.397293 C111.02477,175.372214 182.337266,104.012624 270.305775,104.012624 C358.274284,104.012624 429.588015,175.372214 429.588015,263.397293 C429.588015,351.422372 358.274284,422.781962 270.305775,422.781962 Z" id="Fill-1" fill="#5EAE57"></path>
                            <path d="M270.306146,422.781591 C182.337637,422.781591 111.023906,351.422001 111.023906,263.396922 C111.023906,175.371843 182.337637,104.013489 270.306146,104.013489" id="Fill-3" fill="#67BF5F"></path>
                            <path d="M246.252154,332.160573 C249.766941,335.829676 255.263351,334.471069 257.894809,330.659802 C283.487894,293.592967 309.079744,256.527369 334.672829,219.46177 C338.318571,214.181872 341.964313,208.901975 345.610055,203.622077 C351.04593,195.748589 338.202441,188.323849 332.808571,196.135526 L256.029315,307.333557 L250.491672,314.625957 C232.391343,296.080221 217.775585,280.996704 206.644396,269.375408 C200.029925,262.46988 189.555984,272.969101 196.161807,279.864739 C212.858589,297.296683 229.555372,314.728628 246.252154,332.160573 Z" id="Fill-5" fill="#FFFFFF"></path>
                            <path d="M26.9272217,48.2949307 L26.9272217,102.688631 C26.9272217,112.23349 41.7523339,112.249561 41.7523339,102.688631 L41.7523339,48.2949307 C41.7523339,38.7500724 26.9272217,38.7340016 26.9272217,48.2949307" id="Fill-7" fill="#FF8875"></path>
                            <path d="M61.51915,68.0744583 L7.1604056,68.0744583 C-2.37831862,68.0744583 -2.39437916,82.9091039 7.1604056,82.9091039 L61.51915,82.9091039 C71.0578742,82.9091039 71.0739347,68.0744583 61.51915,68.0744583" id="Fill-9" fill="#FF8875"></path>
                            <path d="M446.972065,385.510904 L446.972065,439.904605 C446.972065,449.450699 461.797177,449.465534 461.797177,439.904605 L461.797177,385.510904 C461.797177,375.966046 446.972065,375.949975 446.972065,385.510904" id="Fill-11" fill="#FCCC6F"></path>
                            <path d="M481.563993,405.290431 L427.205249,405.290431 C417.666524,405.290431 417.650464,420.125077 427.205249,420.125077 L481.563993,420.125077 C491.102717,420.125077 491.118778,405.290431 481.563993,405.290431" id="Fill-13" fill="#FCCC6F"></path>
                            <path d="M88.1688951,102.688631 L88.1688951,129.885482 C88.1688951,137.044435 99.2877291,137.056797 99.2877291,129.885482 L99.2877291,102.688631 C99.2877291,95.5296787 88.1688951,95.5173165 88.1688951,102.688631" id="Fill-15" fill="#FCCC6F"></path>
                            <path d="M107.317998,110.724065 L80.138626,110.724065 C72.984274,110.724065 72.9731552,121.850049 80.138626,121.850049 L107.317998,121.850049 C114.47235,121.850049 114.484704,110.724065 107.317998,110.724065" id="Fill-17" fill="#FCCC6F"></path>
                            <g id="Group-21" transform="translate(135.896861, 0.599567)">
                                <mask id="mask-2" fill="white">
                                    <use xlink:href="#path-1"></use>
                                </mask>
                                <g id="Clip-20"></g>
                                <path d="M0.0113659193,6.0097622 L0.0113659193,36.4727071 C0.0113659193,43.6316598 11.1302,43.6427858 11.1302,36.4727071 L11.1302,6.0097622 C11.1302,-1.14919055 0.0113659193,-1.16155276 0.0113659193,6.0097622" id="Fill-19" fill="#FF8875" mask="url(#mask-2)"></path>
                            </g>
                            <path d="M156.688587,16.2775622 L126.246454,16.2775622 C119.092102,16.2775622 119.079748,27.4035465 126.246454,27.4035465 L156.688587,27.4035465 C163.844174,27.4035465 163.855293,16.2775622 156.688587,16.2775622" id="Fill-22" fill="#FF8875"></path>
                            <path d="M510.224888,335.037753 L510.224888,365.499461 C510.224888,372.658414 521.343722,372.670776 521.343722,365.499461 L521.343722,335.037753 C521.343722,327.8788 510.224888,327.866438 510.224888,335.037753" id="Fill-24" fill="#FF8875"></path>
                            <path d="M531.005742,344.705368 L500.562374,344.705368 C493.408022,344.705368 493.396903,355.831352 500.562374,355.831352 L531.005742,355.831352 C538.160094,355.831352 538.172448,344.705368 531.005742,344.705368" id="Fill-26" fill="#FF8875"></path>
                            <path d="M50.9812132,191.740639 L50.9812132,222.202347 C50.9812132,229.362536 62.1000473,229.373662 62.1000473,222.202347 L62.1000473,191.740639 C62.1000473,184.581686 50.9812132,184.569324 50.9812132,191.740639" id="Fill-28" fill="#FF8875"></path>
                            <path d="M71.762067,201.408872 L41.3199348,201.408872 C34.1643473,201.408872 34.1532285,212.534856 41.3199348,212.534856 L71.762067,212.534856 C78.9164191,212.534856 78.9287733,201.408872 71.762067,201.408872" id="Fill-30" fill="#FF8875"></path>
                            <path d="M525.446325,437.792522 L525.446325,464.989372 C525.446325,472.148325 536.565159,472.160687 536.565159,464.989372 L536.565159,437.792522 C536.565159,430.633569 525.446325,430.622443 525.446325,437.792522" id="Fill-32" fill="#FCCC6F"></path>
                            <path d="M544.595428,445.827955 L517.416056,445.827955 C510.261704,445.827955 510.24935,456.953939 517.416056,456.953939 L544.595428,456.953939 C551.74978,456.953939 551.762134,445.827955 544.595428,445.827955" id="Fill-34" fill="#FCCC6F"></path>
                            <path d="M474.76915,259.773189 L474.76915,290.236134 C474.76915,297.395087 485.887984,297.406213 485.887984,290.236134 L485.887984,259.773189 C485.887984,252.614236 474.76915,252.60311 474.76915,259.773189" id="Fill-36" fill="#FF8875"></path>
                            <path d="M495.550004,269.441422 L465.106636,269.441422 C457.952284,269.441422 457.941165,280.567406 465.106636,280.567406 L495.550004,280.567406 C502.704356,280.567406 502.715475,269.441422 495.550004,269.441422" id="Fill-38" fill="#FF8875"></path>
                        </g>
                    </g>
                </g>
            </g>
        </g>
    </g>
</svg>