<svg xmlns="http://www.w3.org/2000/svg" xmlns:xlink="http://www.w3.org/1999/xlink" viewBox="0 0 215.89 415.96"><defs><style>.cls-1,.cls-13,.cls-14,.cls-19,.cls-22{fill:none;}.cls-2{clip-path:url(#clip-path);}.cls-3{fill:#13857b;}.cls-4{fill:#aedede;}.cls-5{fill:#21ab9f;}.cls-6{fill:#fff;}.cls-7{fill:#70c59a;}.cls-8{fill:#c48469;}.cls-9{fill:#f1a71e;}.cls-10{fill:#1b1529;}.cls-11{fill:#5b4a8d;opacity:0.26;isolation:isolate;}.cls-12{opacity:0.46;}.cls-13{stroke:#4c3e79;}.cls-13,.cls-14,.cls-19,.cls-22{stroke-linecap:round;stroke-linejoin:round;}.cls-13,.cls-14,.cls-22{stroke-width:4px;}.cls-14{stroke:#fff;}.cls-15{fill:#a19ea9;}.cls-16{fill:#b87c63;}.cls-17{fill:#b3afbb;}.cls-18{opacity:0.47;}.cls-19{stroke:#cf8929;stroke-width:3px;}.cls-20{fill:#8cd7f4;}.cls-21{opacity:0.29;}.cls-22{stroke:#b37860;}</style><clipPath id="clip-path" transform="translate(-368.55 -22.63)"><rect class="cls-1" width="612" height="173.72"/></clipPath></defs><title>HeaderImageAsset 1</title><g id="Layer_2" data-name="Layer 2"><g id="Layer_1-2" data-name="Layer 1"><g class="cls-2"><g id="Canvas"><g id="Group_2.1" data-name="Group 2.1"><g id="Group_14" data-name="Group 14"><g id="Group"><g id="Group-2" data-name="Group"><g id="Group-3" data-name="Group"><g id="Vector"><path id="path0_fill" data-name="path0 fill" class="cls-3" d="M374.21,71V82.56a1.57,1.57,0,0,0,3.13,0V71A1.57,1.57,0,0,0,374.21,71Z" transform="translate(-368.55 -22.63)"/></g></g></g><g id="Group-4" data-name="Group"><g id="Group-5" data-name="Group"><g id="Vector-2" data-name="Vector"><path id="path1_fill" data-name="path1 fill" class="cls-3" d="M381.53,75.23H370.05a1.57,1.57,0,0,0,0,3.14h11.48A1.57,1.57,0,0,0,381.53,75.23Z" transform="translate(-368.55 -22.63)"/></g></g></g></g><g id="Group-6" data-name="Group"><g id="Group-7" data-name="Group"><g id="Group-8" data-name="Group"><g id="Vector-3" data-name="Vector"><path id="path2_fill" data-name="path2 fill" class="cls-4" d="M455.41,132.27v11.52a1.57,1.57,0,0,0,3.13,0V132.27A1.57,1.57,0,0,0,455.41,132.27Z" transform="translate(-368.55 -22.63)"/></g></g></g><g id="Group-9" data-name="Group"><g id="Group-10" data-name="Group"><g id="Vector-4" data-name="Vector"><path id="path3_fill" data-name="path3 fill" class="cls-4" d="M462.67,136.46H451.19a1.57,1.57,0,0,0,0,3.14h11.48A1.57,1.57,0,0,0,462.67,136.46Z" transform="translate(-368.55 -22.63)"/></g></g></g></g><g id="Group-11" data-name="Group"><g id="Group-12" data-name="Group"><g id="Group-13" data-name="Group"><g id="Vector-5" data-name="Vector"><path id="path4_fill" data-name="path4 fill" class="cls-4" d="M387.17,82.56v5.76a1.17,1.17,0,0,0,2.34,0V82.56A1.17,1.17,0,0,0,387.17,82.56Z" transform="translate(-368.55 -22.63)"/></g></g></g><g id="Group-14" data-name="Group"><g id="Group-15" data-name="Group"><g id="Vector-6" data-name="Vector"><path id="path5_fill" data-name="path5 fill" class="cls-4" d="M391.21,84.26h-5.74a1.18,1.18,0,0,0,0,2.35h5.74A1.18,1.18,0,0,0,391.21,84.26Z" transform="translate(-368.55 -22.63)"/></g></g></g></g><g id="Group-16" data-name="Group"><g id="Group-17" data-name="Group"><g id="Group-18" data-name="Group"><g id="Vector-7" data-name="Vector"><path id="path6_fill" data-name="path6 fill" class="cls-3" d="M397.24,62.2v6.44a1.17,1.17,0,0,0,2.34,0V62.2A1.17,1.17,0,0,0,397.24,62.2Z" transform="translate(-368.55 -22.63)"/></g></g></g><g id="Group-19" data-name="Group"><g id="Group-20" data-name="Group"><g id="Vector-8" data-name="Vector"><path id="path7_fill" data-name="path7 fill" class="cls-3" d="M401.59,64.26h-6.42a1.18,1.18,0,0,0,0,2.36h6.42A1.18,1.18,0,0,0,401.59,64.26Z" transform="translate(-368.55 -22.63)"/></g></g></g></g><g id="Group-21" data-name="Group"><g id="Group-22" data-name="Group"><g id="Group-23" data-name="Group"><g id="Vector-9" data-name="Vector"><path id="path8_fill" data-name="path8 fill" class="cls-3" d="M468.73,121.59V128a1.18,1.18,0,0,0,2.35,0v-6.44A1.18,1.18,0,0,0,468.73,121.59Z" transform="translate(-368.55 -22.63)"/></g></g></g><g id="Group-24" data-name="Group"><g id="Group-25" data-name="Group"><g id="Vector-10" data-name="Vector"><path id="path9_fill" data-name="path9 fill" class="cls-3" d="M473.13,123.63h-6.41a1.18,1.18,0,0,0,0,2.36h6.41A1.18,1.18,0,0,0,473.13,123.63Z" transform="translate(-368.55 -22.63)"/></g></g></g></g><g id="Group-26" data-name="Group"><g id="Group-27" data-name="Group"><g id="Group-28" data-name="Group"><g id="Vector-11" data-name="Vector"><path id="path10_fill" data-name="path10 fill" class="cls-5" d="M379.3,101.4v6.44a1.18,1.18,0,0,0,2.35,0V101.4A1.18,1.18,0,0,0,379.3,101.4Z" transform="translate(-368.55 -22.63)"/></g></g></g><g id="Group-29" data-name="Group"><g id="Group-30" data-name="Group"><g id="Vector-12" data-name="Vector"><path id="path11_fill" data-name="path11 fill" class="cls-5" d="M383.7,103.44h-6.41a1.18,1.18,0,0,0,0,2.36h6.41A1.18,1.18,0,0,0,383.7,103.44Z" transform="translate(-368.55 -22.63)"/></g></g></g></g><g id="Group-31" data-name="Group"><g id="Group-32" data-name="Group"><g id="Group-33" data-name="Group"><g id="Vector-13" data-name="Vector"><path id="path12_fill" data-name="path12 fill" class="cls-5" d="M471.93,143.34v5.76a1.18,1.18,0,0,0,2.35,0v-5.76A1.18,1.18,0,0,0,471.93,143.34Z" transform="translate(-368.55 -22.63)"/></g></g></g><g id="Group-34" data-name="Group"><g id="Group-35" data-name="Group"><g id="Vector-14" data-name="Vector"><path id="path13_fill" data-name="path13 fill" class="cls-5" d="M476,145h-5.74a1.18,1.18,0,0,0,0,2.36H476A1.18,1.18,0,0,0,476,145Z" transform="translate(-368.55 -22.63)"/></g></g></g></g><g id="Group-36" data-name="Group"><g id="Group-37" data-name="Group"><g id="Group-38" data-name="Group"><g id="Vector-15" data-name="Vector"><path id="path14_fill" data-name="path14 fill" class="cls-5" d="M461.23,105.66v6.43a1.18,1.18,0,0,0,2.35,0v-6.43A1.18,1.18,0,0,0,461.23,105.66Z" transform="translate(-368.55 -22.63)"/></g></g></g><g id="Group-39" data-name="Group"><g id="Group-40" data-name="Group"><g id="Vector-16" data-name="Vector"><path id="path15_fill" data-name="path15 fill" class="cls-5" d="M465.63,107.72h-6.41a1.18,1.18,0,0,0,0,2.36h6.41A1.18,1.18,0,0,0,465.63,107.72Z" transform="translate(-368.55 -22.63)"/></g></g></g></g><g id="Group_13" data-name="Group 13"><g id="Group_12.1" data-name="Group 12.1"><g id="Group_11.1" data-name="Group 11.1"><g id="Ellipse"><path id="path16_fill" data-name="path16 fill" class="cls-6" d="M454.76,107.62A31.28,31.28,0,1,1,423.48,76.3,31.31,31.31,0,0,1,454.76,107.62Z" transform="translate(-368.55 -22.63)"/></g><g id="Vector-17" data-name="Vector"><path id="path17_fill" data-name="path17 fill" class="cls-7" d="M435.62,94.66l-17.78,19-6.5-6.94a2.93,2.93,0,0,0-4.34,0,3.43,3.43,0,0,0,0,4.63l8.67,9.26a2.93,2.93,0,0,0,4.34,0L440,99.29a3.45,3.45,0,0,0,0-4.63A2.93,2.93,0,0,0,435.62,94.66Z" transform="translate(-368.55 -22.63)"/></g></g></g></g></g></g></g><path class="cls-8" d="M457.15,267.43,469.82,170a12.5,12.5,0,1,1,24.33,5.55L469,263l-6.21,27.31a6.27,6.27,0,0,1-6.4,4.9,6.46,6.46,0,0,1-6-5.79l-.48-4.13C448.72,272.81,457.15,267.43,457.15,267.43Z" transform="translate(-368.55 -22.63)"/><path class="cls-8" d="M577,267.43,564.31,170A12.49,12.49,0,1,0,540,175.57L565.15,263l6.27,27.31a6.27,6.27,0,0,0,6.4,4.9,6.46,6.46,0,0,0,6-5.79l.48-4.13C585.47,272.81,577,267.43,577,267.43Z" transform="translate(-368.55 -22.63)"/><path class="cls-9" d="M515.42,133h11.66c17.51,0,32.09,7.35,35.38,22,1.91,8.49,6.21,25.4,6.21,25.4H514.05Z" transform="translate(-368.55 -22.63)"/><path class="cls-9" d="M518.71,133H507.05c-17.51,0-32.09,7.35-35.38,22-1.91,8.49-6.21,25.4-6.21,25.4h54.62Z" transform="translate(-368.55 -22.63)"/><path class="cls-10" d="M509.57,252.49h15.06l32.09-4.66,16.73,175.11a4.19,4.19,0,0,1-4.18,4.6H558.63a4.21,4.21,0,0,1-4.06-3.16L521.76,288.71a4.84,4.84,0,0,0-9.39,0L479.56,424.38a4.21,4.21,0,0,1-4.06,3.16H464.86a4.22,4.22,0,0,1-4.18-4.6L477.83,249.8Z" transform="translate(-368.55 -22.63)"/><rect class="cls-11" x="92.13" y="393.97" width="20.86" height="9.62"/><rect class="cls-11" x="184.11" y="393.97" width="20.86" height="9.62"/><g class="cls-12"><path class="cls-13" d="M479.56,273.77a11.89,11.89,0,0,0,11.9-11.9" transform="translate(-368.55 -22.63)"/><path class="cls-13" d="M542.73,261.87a11.89,11.89,0,0,0,11.9,11.9" transform="translate(-368.55 -22.63)"/></g><path class="cls-14" d="M525.82,255.18a3.37,3.37,0,1,1-1.73,6.51c-1.85-.47-6.64-5.19-6.64-5.19S524,254.7,525.82,255.18Z" transform="translate(-368.55 -22.63)"/><path class="cls-14" d="M516.5,256.5s-4.78,4.72-6.64,5.19a3.37,3.37,0,0,1-1.73-6.51C510,254.7,516.5,256.5,516.5,256.5Z" transform="translate(-368.55 -22.63)"/><line class="cls-14" x1="148.13" y1="235.06" x2="142.1" y2="243.66"/><line class="cls-14" x1="148.49" y1="235.06" x2="154.53" y2="243.66"/><circle class="cls-15" cx="148.55" cy="20.5" r="20.5"/><path class="cls-9" d="M505.86,133h23.19c9.44,9.44,21.57,12.55,21.57,28l7.18,86.42s-23.43,8.49-44.71,8.49a134,134,0,0,1-36.75-4.9l7.88-90C484.22,145.51,494.74,144,505.86,133Z" transform="translate(-368.55 -22.63)"/><path class="cls-16" d="M493.25,91.84h47.69A7.19,7.19,0,0,1,548.11,99h0a7.19,7.19,0,0,1-7.17,7.18H493.25A7.19,7.19,0,0,1,486.08,99h0A7.19,7.19,0,0,1,493.25,91.84Z" transform="translate(-368.55 -22.63)"/><path class="cls-8" d="M517.1,62.56h0a24,24,0,0,1,24,24v11.6c0,7-3.88,13.8-9.08,18.58a14.26,14.26,0,0,0-4.49,11.36l.72,9.74L517.1,152,506,137.8l.72-9.74a14.11,14.11,0,0,0-4.49-11.36c-5.2-4.78-9.08-11.59-9.08-18.58V86.52A23.93,23.93,0,0,1,517.1,62.56Z" transform="translate(-368.55 -22.63)"/><path class="cls-17" d="M517,47.74h1.13a23.61,23.61,0,0,1,5,.53C537.12,50.48,546,61.06,546,82c0,6.34-3.17,17-5,17l-3.94-21.87a6.13,6.13,0,0,0-7.83-4.78L523.85,74a23.15,23.15,0,0,1-13.69,0l-5.32-1.67A6.13,6.13,0,0,0,497,77.14L493,99c-1.85,0-5-10.75-5-17C488.05,58.13,499.58,47.74,517,47.74Z" transform="translate(-368.55 -22.63)"/><g class="cls-18"><path class="cls-19" d="M543.63,189.92a213.71,213.71,0,0,1-53.13,0" transform="translate(-368.55 -22.63)"/></g><path class="cls-20" d="M561.38,421.39h7.77c5.86,0,10.7,7,10.7,12.85H550.68C550.68,428.38,555.46,421.39,561.38,421.39Z" transform="translate(-368.55 -22.63)"/><rect class="cls-6" x="182.08" y="411.6" width="29.17" height="4.36"/><path class="cls-20" d="M465,421.39h7.77c5.86,0,10.7,7,10.7,12.85H454.34C454.34,428.38,459.12,421.39,465,421.39Z" transform="translate(-368.55 -22.63)"/><rect class="cls-6" x="85.74" y="411.6" width="29.17" height="4.36"/><g class="cls-21"><path class="cls-22" d="M529.35,110a32.58,32.58,0,0,0-3.53-9.92" transform="translate(-368.55 -22.63)"/><path class="cls-22" d="M504.78,110a32.58,32.58,0,0,1,3.53-9.92" transform="translate(-368.55 -22.63)"/></g></g></g></g></svg>