<svg xmlns="http://www.w3.org/2000/svg" xmlns:xlink="http://www.w3.org/1999/xlink" viewBox="0 0 215.89 415.96"><defs><style>.cls-1,.cls-13,.cls-14,.cls-19,.cls-22{fill:none;}.cls-2{clip-path:url(#clip-path);}.cls-3{fill:#13857b;}.cls-4{fill:#aedede;}.cls-5{fill:#21ab9f;}.cls-6{fill:#fff;}.cls-7{fill:#70c59a;}.cls-8{fill:#c48469;}.cls-9{fill:#f1a71e;}.cls-10{fill:#1b1529;}.cls-11{fill:#5b4a8d;opacity:0.26;isolation:isolate;}.cls-12{opacity:0.46;}.cls-13{stroke:#4c3e79;}.cls-13,.cls-14,.cls-19,.cls-22{stroke-linecap:round;stroke-linejoin:round;}.cls-13,.cls-14,.cls-22{stroke-width:4px;}.cls-14{stroke:#fff;}.cls-15{fill:#a19ea9;}.cls-16{fill:#b87c63;}.cls-17{fill:#b3afbb;}.cls-18{opacity:0.47;}.cls-19{stroke:#cf8929;stroke-width:3px;}.cls-20{fill:#8cd7f4;}.cls-21{opacity:0.29;}.cls-22{stroke:#b37860;}</style><clipPath id="clip-path" transform="translate(-9.23 -22.63)"><rect class="cls-1" width="217.14" height="173.72"/></clipPath></defs><title>HeaderAsset 10</title><g id="Layer_2" data-name="Layer 2"><g id="Layer_1-2" data-name="Layer 1"><g class="cls-2"><g id="Canvas"><g id="Group_2.1" data-name="Group 2.1"><g id="Group_14" data-name="Group 14"><g id="Group"><g id="Group-2" data-name="Group"><g id="Group-3" data-name="Group"><g id="Vector"><path id="path0_fill" data-name="path0 fill" class="cls-3" d="M14.89,71V82.56a1.57,1.57,0,0,0,3.13,0V71A1.57,1.57,0,0,0,14.89,71Z" transform="translate(-9.23 -22.63)"/></g></g></g><g id="Group-4" data-name="Group"><g id="Group-5" data-name="Group"><g id="Vector-2" data-name="Vector"><path id="path1_fill" data-name="path1 fill" class="cls-3" d="M22.21,75.23H10.73a1.57,1.57,0,0,0,0,3.14H22.21A1.57,1.57,0,0,0,22.21,75.23Z" transform="translate(-9.23 -22.63)"/></g></g></g></g><g id="Group-6" data-name="Group"><g id="Group-7" data-name="Group"><g id="Group-8" data-name="Group"><g id="Vector-3" data-name="Vector"><path id="path2_fill" data-name="path2 fill" class="cls-4" d="M96.09,132.27v11.52a1.57,1.57,0,0,0,3.13,0V132.27A1.57,1.57,0,0,0,96.09,132.27Z" transform="translate(-9.23 -22.63)"/></g></g></g><g id="Group-9" data-name="Group"><g id="Group-10" data-name="Group"><g id="Vector-4" data-name="Vector"><path id="path3_fill" data-name="path3 fill" class="cls-4" d="M103.35,136.46H91.87a1.57,1.57,0,0,0,0,3.14h11.48A1.57,1.57,0,0,0,103.35,136.46Z" transform="translate(-9.23 -22.63)"/></g></g></g></g><g id="Group-11" data-name="Group"><g id="Group-12" data-name="Group"><g id="Group-13" data-name="Group"><g id="Vector-5" data-name="Vector"><path id="path4_fill" data-name="path4 fill" class="cls-4" d="M27.85,82.56v5.76a1.17,1.17,0,0,0,2.34,0V82.56A1.17,1.17,0,0,0,27.85,82.56Z" transform="translate(-9.23 -22.63)"/></g></g></g><g id="Group-14" data-name="Group"><g id="Group-15" data-name="Group"><g id="Vector-6" data-name="Vector"><path id="path5_fill" data-name="path5 fill" class="cls-4" d="M31.89,84.26H26.15a1.18,1.18,0,0,0,0,2.35h5.74A1.18,1.18,0,0,0,31.89,84.26Z" transform="translate(-9.23 -22.63)"/></g></g></g></g><g id="Group-16" data-name="Group"><g id="Group-17" data-name="Group"><g id="Group-18" data-name="Group"><g id="Vector-7" data-name="Vector"><path id="path6_fill" data-name="path6 fill" class="cls-3" d="M37.92,62.2v6.44a1.17,1.17,0,0,0,2.34,0V62.2A1.17,1.17,0,0,0,37.92,62.2Z" transform="translate(-9.23 -22.63)"/></g></g></g><g id="Group-19" data-name="Group"><g id="Group-20" data-name="Group"><g id="Vector-8" data-name="Vector"><path id="path7_fill" data-name="path7 fill" class="cls-3" d="M42.27,64.26H35.85a1.18,1.18,0,0,0,0,2.36h6.42A1.18,1.18,0,0,0,42.27,64.26Z" transform="translate(-9.23 -22.63)"/></g></g></g></g><g id="Group-21" data-name="Group"><g id="Group-22" data-name="Group"><g id="Group-23" data-name="Group"><g id="Vector-9" data-name="Vector"><path id="path8_fill" data-name="path8 fill" class="cls-3" d="M109.41,121.59V128a1.18,1.18,0,0,0,2.35,0v-6.44A1.18,1.18,0,0,0,109.41,121.59Z" transform="translate(-9.23 -22.63)"/></g></g></g><g id="Group-24" data-name="Group"><g id="Group-25" data-name="Group"><g id="Vector-10" data-name="Vector"><path id="path9_fill" data-name="path9 fill" class="cls-3" d="M113.81,123.63H107.4a1.18,1.18,0,0,0,0,2.36h6.41A1.18,1.18,0,0,0,113.81,123.63Z" transform="translate(-9.23 -22.63)"/></g></g></g></g><g id="Group-26" data-name="Group"><g id="Group-27" data-name="Group"><g id="Group-28" data-name="Group"><g id="Vector-11" data-name="Vector"><path id="path10_fill" data-name="path10 fill" class="cls-5" d="M20,101.4v6.44a1.18,1.18,0,0,0,2.35,0V101.4A1.18,1.18,0,0,0,20,101.4Z" transform="translate(-9.23 -22.63)"/></g></g></g><g id="Group-29" data-name="Group"><g id="Group-30" data-name="Group"><g id="Vector-12" data-name="Vector"><path id="path11_fill" data-name="path11 fill" class="cls-5" d="M24.38,103.44H18a1.18,1.18,0,0,0,0,2.36h6.41A1.18,1.18,0,0,0,24.38,103.44Z" transform="translate(-9.23 -22.63)"/></g></g></g></g><g id="Group-31" data-name="Group"><g id="Group-32" data-name="Group"><g id="Group-33" data-name="Group"><g id="Vector-13" data-name="Vector"><path id="path12_fill" data-name="path12 fill" class="cls-5" d="M112.61,143.34v5.76a1.18,1.18,0,0,0,2.35,0v-5.76A1.18,1.18,0,0,0,112.61,143.34Z" transform="translate(-9.23 -22.63)"/></g></g></g><g id="Group-34" data-name="Group"><g id="Group-35" data-name="Group"><g id="Vector-14" data-name="Vector"><path id="path13_fill" data-name="path13 fill" class="cls-5" d="M116.65,145h-5.74a1.18,1.18,0,0,0,0,2.36h5.74A1.18,1.18,0,0,0,116.65,145Z" transform="translate(-9.23 -22.63)"/></g></g></g></g><g id="Group-36" data-name="Group"><g id="Group-37" data-name="Group"><g id="Group-38" data-name="Group"><g id="Vector-15" data-name="Vector"><path id="path14_fill" data-name="path14 fill" class="cls-5" d="M101.91,105.66v6.43a1.18,1.18,0,0,0,2.35,0v-6.43A1.18,1.18,0,0,0,101.91,105.66Z" transform="translate(-9.23 -22.63)"/></g></g></g><g id="Group-39" data-name="Group"><g id="Group-40" data-name="Group"><g id="Vector-16" data-name="Vector"><path id="path15_fill" data-name="path15 fill" class="cls-5" d="M106.31,107.72H99.9a1.18,1.18,0,0,0,0,2.36h6.41A1.18,1.18,0,0,0,106.31,107.72Z" transform="translate(-9.23 -22.63)"/></g></g></g></g><g id="Group_13" data-name="Group 13"><g id="Group_12.1" data-name="Group 12.1"><g id="Group_11.1" data-name="Group 11.1"><g id="Ellipse"><path id="path16_fill" data-name="path16 fill" class="cls-6" d="M95.44,107.62A31.28,31.28,0,1,1,64.16,76.3,31.3,31.3,0,0,1,95.44,107.62Z" transform="translate(-9.23 -22.63)"/></g><g id="Vector-17" data-name="Vector"><path id="path17_fill" data-name="path17 fill" class="cls-7" d="M76.3,94.66l-17.78,19L52,106.69a2.93,2.93,0,0,0-4.34,0,3.43,3.43,0,0,0,0,4.63l8.67,9.26a2.93,2.93,0,0,0,4.34,0l20-21.29a3.45,3.45,0,0,0,0-4.63A2.93,2.93,0,0,0,76.3,94.66Z" transform="translate(-9.23 -22.63)"/></g></g></g></g></g></g></g><path class="cls-8" d="M97.83,267.43,110.5,170a12.5,12.5,0,1,1,24.33,5.55L109.66,263l-6.21,27.31a6.27,6.27,0,0,1-6.4,4.9,6.46,6.46,0,0,1-6-5.79l-.48-4.13C89.4,272.81,97.83,267.43,97.83,267.43Z" transform="translate(-9.23 -22.63)"/><path class="cls-8" d="M217.66,267.43,205,170a12.49,12.49,0,1,0-24.32,5.55L205.83,263l6.27,27.31a6.27,6.27,0,0,0,6.4,4.9,6.46,6.46,0,0,0,6-5.79l.48-4.13C226.15,272.81,217.66,267.43,217.66,267.43Z" transform="translate(-9.23 -22.63)"/><path class="cls-9" d="M156.1,133h11.66c17.51,0,32.09,7.35,35.38,22,1.91,8.49,6.21,25.4,6.21,25.4H154.73Z" transform="translate(-9.23 -22.63)"/><path class="cls-9" d="M159.39,133H147.73c-17.51,0-32.09,7.35-35.38,22-1.91,8.49-6.21,25.4-6.21,25.4h54.62Z" transform="translate(-9.23 -22.63)"/><path class="cls-10" d="M150.25,252.49h15.06l32.09-4.66,16.73,175.11a4.19,4.19,0,0,1-4.18,4.6H199.31a4.21,4.21,0,0,1-4.06-3.16L162.44,288.71a4.84,4.84,0,0,0-9.39,0L120.24,424.38a4.21,4.21,0,0,1-4.06,3.16H105.54a4.22,4.22,0,0,1-4.18-4.6L118.51,249.8Z" transform="translate(-9.23 -22.63)"/><rect class="cls-11" x="92.13" y="393.97" width="20.86" height="9.62"/><rect class="cls-11" x="184.11" y="393.97" width="20.86" height="9.62"/><g class="cls-12"><path class="cls-13" d="M120.24,273.77a11.89,11.89,0,0,0,11.9-11.9" transform="translate(-9.23 -22.63)"/><path class="cls-13" d="M183.41,261.87a11.89,11.89,0,0,0,11.9,11.9" transform="translate(-9.23 -22.63)"/></g><path class="cls-14" d="M166.5,255.18a3.37,3.37,0,0,1-1.73,6.51c-1.85-.47-6.64-5.19-6.64-5.19S164.71,254.7,166.5,255.18Z" transform="translate(-9.23 -22.63)"/><path class="cls-14" d="M157.18,256.5s-4.78,4.72-6.64,5.19a3.37,3.37,0,1,1-1.73-6.51C150.66,254.7,157.18,256.5,157.18,256.5Z" transform="translate(-9.23 -22.63)"/><line class="cls-14" x1="148.13" y1="235.06" x2="142.1" y2="243.66"/><line class="cls-14" x1="148.49" y1="235.06" x2="154.53" y2="243.66"/><circle class="cls-15" cx="148.55" cy="20.5" r="20.5"/><path class="cls-9" d="M146.54,133h23.19c9.44,9.44,21.57,12.55,21.57,28l7.18,86.42s-23.43,8.49-44.71,8.49A134,134,0,0,1,117,251l7.88-90C124.9,145.51,135.42,144,146.54,133Z" transform="translate(-9.23 -22.63)"/><path class="cls-16" d="M133.93,91.84h47.69A7.19,7.19,0,0,1,188.79,99h0a7.19,7.19,0,0,1-7.17,7.18H133.93A7.19,7.19,0,0,1,126.76,99h0A7.19,7.19,0,0,1,133.93,91.84Z" transform="translate(-9.23 -22.63)"/><path class="cls-8" d="M157.78,62.56h0a24,24,0,0,1,24,24v11.6c0,7-3.88,13.8-9.08,18.58a14.26,14.26,0,0,0-4.49,11.36l.72,9.74L157.78,152,146.66,137.8l.72-9.74a14.11,14.11,0,0,0-4.49-11.36c-5.2-4.78-9.08-11.59-9.08-18.58V86.52A23.93,23.93,0,0,1,157.78,62.56Z" transform="translate(-9.23 -22.63)"/><path class="cls-17" d="M157.66,47.74h1.13a23.61,23.61,0,0,1,5,.53c14,2.21,22.89,12.79,22.89,33.71,0,6.34-3.17,17-5,17l-3.94-21.87a6.13,6.13,0,0,0-7.83-4.78L164.53,74a23.15,23.15,0,0,1-13.69,0l-5.32-1.67a6.13,6.13,0,0,0-7.89,4.78L133.69,99c-1.85,0-5-10.75-5-17C128.73,58.13,140.26,47.74,157.66,47.74Z" transform="translate(-9.23 -22.63)"/><g class="cls-18"><path class="cls-19" d="M184.31,189.92a213.71,213.71,0,0,1-53.13,0" transform="translate(-9.23 -22.63)"/></g><path class="cls-20" d="M202.06,421.39h7.77c5.86,0,10.7,7,10.7,12.85H191.36C191.36,428.38,196.14,421.39,202.06,421.39Z" transform="translate(-9.23 -22.63)"/><rect class="cls-6" x="182.08" y="411.6" width="29.17" height="4.36"/><path class="cls-20" d="M105.72,421.39h7.77c5.86,0,10.7,7,10.7,12.85H95C95,428.38,99.8,421.39,105.72,421.39Z" transform="translate(-9.23 -22.63)"/><rect class="cls-6" x="85.74" y="411.6" width="29.17" height="4.36"/><g class="cls-21"><path class="cls-22" d="M170,110a32.58,32.58,0,0,0-3.53-9.92" transform="translate(-9.23 -22.63)"/><path class="cls-22" d="M145.46,110a32.58,32.58,0,0,1,3.53-9.92" transform="translate(-9.23 -22.63)"/></g></g></g></g></svg>