<svg xmlns="http://www.w3.org/2000/svg" viewBox="0 0 32.79 61.8"><defs><style>.cls-1{fill:#4c3c77;}.cls-2{fill:none;}.cls-3{fill:#5a478f;}.cls-4{fill:#fff;}.cls-5{fill:#87c8d7;}.cls-6{fill:#7cb7c5;}</style></defs><title>Asset 4Install</title><g id="Layer_2" data-name="Layer 2"><g id="Layer_1-2" data-name="Layer 1"><path class="cls-1" d="M26.74,0H6.14C2.12,0,.07,2,.07,6.06V55.74c0,4,2,6.06,6.06,6.06h20.6c4,0,6.06-2,6.06-6.06V6.06c0-4-2-6.06-6.06-6.06Zm0,0"/><path class="cls-2" d="M26.66,0H6.06C2,0,0,2,0,6.06V55.74c0,4,2,6.06,6.06,6.06h20.6c4,0,6.06-2,6.06-6.06V6.06c0-4-2-6.06-6.06-6.06Zm0,0"/><path class="cls-3" d="M26.87,0H6.28C2.26,0,.21,2,.21,6.06V55.74c0,4,2,6.06,6.06,6.06h20.6"/><path class="cls-4" d="M19.57,3.84H13.31a.71.71,0,1,0,0,1.41h6.26a.71.71,0,0,0,0-1.41Zm0,0"/><rect class="cls-5" x="3.17" y="7.72" width="26.34" height="45.14"/><rect class="cls-6" x="26.75" y="7.72" width="2.85" height="45.14"/><circle class="cls-4" cx="16.53" cy="57.37" r="2.44"/></g></g></svg>