<svg xmlns="http://www.w3.org/2000/svg" viewBox="0 0 364.92 435.77"><defs><style>.cls-1{fill:#fed587;}.cls-2{fill:#67bf5f;}.cls-3{fill:#5eae57;}.cls-4{fill:#fccc6f;}.cls-5{fill:#fff;}</style></defs><title>Asset 8Quiz</title><g id="Layer_2" data-name="Layer 2"><g id="Layer_1-2" data-name="Layer 1"><polygon class="cls-1" points="322.63 210.59 364.92 178.51 322.63 146.34 346.9 99.08 294.83 88.61 296.2 35.43 244.82 48.55 223.03 0 182.46 34.31 141.88 0 120.09 48.55 68.71 35.34 70.08 88.61 18.01 99.08 42.29 146.34 0 178.51 42.29 210.59 18.01 257.95 70.08 268.41 68.71 321.6 120.09 308.47 141.88 357.02 182.46 322.71 223.03 357.02 244.82 308.47 296.2 321.6 294.83 268.41 346.9 257.95 322.63 210.59"/><polygon class="cls-2" points="120.09 308.47 68.71 321.6 69.91 273.47 59.79 291.49 4.29 389.71 67.68 372.12 85.27 435.77 130.65 355.56 136.48 345.1 120.09 308.47"/><polygon class="cls-2" points="305.04 288.31 294.92 270.3 296.2 321.6 244.82 308.47 229.12 343.38 235.04 353.85 281.36 435.77 298.95 372.12 362.34 389.71 305.04 288.31"/><polygon class="cls-3" points="136.48 345.1 130.65 355.56 114.6 319.88 58.67 334.2 59.79 291.49 69.91 273.47 68.71 321.6 120.09 308.47 136.48 345.1"/><polygon class="cls-3" points="306.24 334.2 250.31 319.88 235.04 353.85 229.12 343.38 244.82 308.47 296.2 321.6 294.92 270.3 305.04 288.31 306.24 334.2"/><ellipse class="cls-4" cx="182.46" cy="178.51" rx="113.32" ry="113.66"/><path class="cls-5" d="M122.44,191.83,163,234.14c2.84,3,7.29,1.87,9.42-1.21l62.15-90,8.85-12.81c4.4-6.37-6-12.38-10.36-6.06l-62.15,90L162,226.86l9.42-1.21-40.55-42.3c-5.35-5.59-13.83,2.91-8.49,8.49Z"/></g></g></svg>