<svg xmlns="http://www.w3.org/2000/svg" xmlns:xlink="http://www.w3.org/1999/xlink" viewBox="0 0 389.54 366.38"><defs><style>.cls-1{fill:none;}.cls-2{fill:#495b7a;}.cls-3{fill:#fed587;}.cls-4{fill:#323745;}.cls-5{clip-path:url(#clip-path);}.cls-6{fill:#3b4a63;}.cls-7{fill:#ff8875;}.cls-8{clip-path:url(#clip-path-2);}.cls-9{fill:#f2806f;}</style><clipPath id="clip-path"><polygon class="cls-1" points="101.18 350.82 57.98 310.43 290.23 60.91 328.96 97.12 101.18 350.82"/></clipPath><clipPath id="clip-path-2"><path class="cls-1" d="M306.17,5.73,345.26,43c10.13,9.57,8.07,28.3-4.34,41.41L323.75,102.5l-.21.21L248.06,30.5l.21-.21,17.16-18.11c12.41-13.11,31-16.23,40.95-6.45h-.21Z"/></clipPath></defs><title>Asset 10Sign</title><g id="Layer_2" data-name="Layer 2"><g id="Layer_1-2" data-name="Layer 1"><polygon class="cls-2" points="249.76 28.49 325.54 100.47 128.77 307.03 52.99 235.05 249.76 28.49"/><path class="cls-3" d="M53,235.07l75.81,72L53,340.62,23.46,312.56,53.2,235.28Z"/><path class="cls-4" d="M53,340.62,0,366.38l23.46-53.82Z"/><g class="cls-5"><polygon class="cls-6" points="248.16 31.05 323.71 101.99 128.77 307.03 51.98 234.64 248.16 31.05"/></g><path class="cls-7" d="M306.17,5.73,345.26,43c10.13,9.57,8.07,28.3-4.34,41.41L323.75,102.5l-.21.21L248.06,30.5l.21-.21,17.16-18.11c12.41-13.11,31-16.23,40.95-6.45h-.21Z"/><g class="cls-8"><rect class="cls-9" x="290.01" y="35.95" width="82.5" height="82.5" transform="translate(139.37 -203.64) rotate(42.54)"/></g></g></g></svg>